<?xml version="1.0" encoding="UTF-8"?>
<svg version="1.1" xmlns="http://www.w3.org/2000/svg" width="164" height="129">
<path d="M0 0 C54.12 0 108.24 0 164 0 C164 42.57 164 85.14 164 129 C109.88 129 55.76 129 0 129 C0 86.43 0 43.86 0 0 Z " fill="#000101" transform="translate(0,0)"/>
<path d="M0 0 C3.0625 1.5 3.0625 1.5 5 3 C5.33 2.34 5.66 1.68 6 1 C8.31 1 10.62 1 13 1 C13.09935879 6.69249459 13.17169923 12.38447718 13.21972656 18.07763672 C13.23976141 20.01164552 13.26699729 21.94559435 13.30175781 23.87939453 C13.35063571 26.66974743 13.37305019 29.45929501 13.390625 32.25 C13.41127014 33.10553467 13.43191528 33.96106934 13.45318604 34.8425293 C13.45533041 40.66437567 12.37573341 45.17638929 9 50 C3.1126791 54.86909765 -2.5387063 54.48881892 -9.9375 54.25 C-11.00291016 54.23195312 -12.06832031 54.21390625 -13.16601562 54.1953125 C-15.77828929 54.14845557 -18.38866226 54.08286926 -21 54 C-21.09938156 48.44992205 -21.1717096 42.90036982 -21.21972656 37.34960938 C-21.23975767 35.46410084 -21.26699073 33.57865377 -21.30175781 31.69335938 C-21.35065272 28.97250138 -21.37305382 26.25246944 -21.390625 23.53125 C-21.41127014 22.69758911 -21.43191528 21.86392822 -21.45318604 21.00500488 C-21.45560028 14.61047957 -20.0434985 9.13488052 -15.48150635 4.43591309 C-10.33101574 0.03272401 -6.61680902 -0.68449748 0 0 Z " fill="#F6F6F6" transform="translate(21,75)"/>
<path d="M0 0 C2.64 0 5.28 0 8 0 C8 17.16 8 34.32 8 52 C5.69 52 3.38 52 1 52 C0.67 51.34 0.34 50.68 0 50 C-0.639375 50.495 -1.27875 50.99 -1.9375 51.5 C-6.06398708 53.52113653 -9.48119314 53.71853819 -14 53 C-19.59483764 50.14979969 -23.03253019 46.563795 -25.25 40.6875 C-26.73938891 33.3646712 -26.55611264 26.69240642 -23 20 C-19.26958043 15.87235983 -15.87872261 13.12524817 -10.25 12.75 C-5.76710278 12.57350798 -4.60697843 13.69651078 0 16 C0 10.72 0 5.44 0 0 Z " fill="#F0F0F0" transform="translate(146,62)"/>
<path d="M0 0 C3.1336738 4.00159963 3.40878148 7.26678004 3.51171875 12.26953125 C3.52966995 12.95053391 3.54762115 13.63153656 3.56611633 14.33317566 C3.61998631 16.4928888 3.65403782 18.65238399 3.6875 20.8125 C3.72069391 22.28323331 3.75518549 23.75393793 3.79101562 25.22460938 C3.87569716 28.81619687 3.94261961 32.40786076 4 36 C0.625 36.1875 0.625 36.1875 -3 36 C-3.66 35.01 -4.32 34.02 -5 33 C-5.4846875 33.28875 -5.969375 33.5775 -6.46875 33.875 C-11.65018251 36.74471647 -15.08285799 37.65746022 -21 37 C-25.08500932 35.81221733 -27.56749878 34.64875183 -30 31 C-30.54613601 27.60820796 -30.53660917 24.39310446 -30 21 C-26.39968022 16.19957363 -22.94685556 14.31665723 -17.109375 13.3671875 C-15.65712432 13.19555787 -14.20393775 13.03169647 -12.75 12.875 C-12.00492188 12.78863281 -11.25984375 12.70226562 -10.4921875 12.61328125 C-8.66222154 12.40213133 -6.83120121 12.20015455 -5 12 C-5.26656572 9.06556598 -5.26656572 9.06556598 -6 6 C-9.69308217 3.53794522 -12.71316878 3.42957488 -17 4 C-20.23613354 5.74253345 -20.82395315 6.47185944 -22 10 C-24.31 10 -26.62 10 -29 10 C-29.3735461 6.73147163 -29.14191172 5.23841169 -27.4375 2.375 C-19.76326608 -5.10245869 -9.10542983 -4.63258711 0 0 Z " fill="#479ED1" transform="translate(95,78)"/>
<path d="M0 0 C3.5873132 3.0292867 5.7199622 5.2211634 6.203125 10.015625 C6.31781336 15.48243683 5.76461609 19.23342054 3 24 C0.1216045 26.48942314 -1.25464628 27.0152113 -5.0625 26.9375 C-8.41566758 25.86734013 -9.82655477 24.73693103 -12 22 C-13.81889755 16.54330735 -14.52443513 9.13419313 -11.953125 3.84765625 C-8.13608733 -0.74401554 -5.67017843 -1.55651957 0 0 Z " fill="#040404" transform="translate(141,82)"/>
<path d="M0 0 C3.74702028 3.84562607 5.14787066 6.52594592 5.1875 11.8125 C5.1098571 17.20868184 4.60411974 20.35132138 0.75 24.3125 C-2.58837519 26.36104841 -4.15197461 26.72150476 -8 26 C-11.57411316 22.98186 -13.81778247 20.8846499 -14.2734375 16.171875 C-14.58134921 5.79761905 -14.58134921 5.79761905 -11.625 2.25 C-7.40276383 -1.36905957 -5.43702837 -1.31238616 0 0 Z " fill="#030303" transform="translate(22,82)"/>
<path d="M0 0 C0.99 0.66 1.98 1.32 3 2 C2.625 4.9375 2.625 4.9375 2 8 C-0.95664519 9.4783226 -3.74229737 9.06032783 -7 9 C-8.72279809 12.76295373 -9.28711011 15.83107844 -9.4140625 19.95703125 C-9.47207031 21.62475586 -9.47207031 21.62475586 -9.53125 23.32617188 C-9.57765625 25.0519043 -9.57765625 25.0519043 -9.625 26.8125 C-9.68300781 28.56723633 -9.68300781 28.56723633 -9.7421875 30.35742188 C-9.8362513 33.23812564 -9.92189877 36.11882654 -10 39 C-12.64 39 -15.28 39 -18 39 C-18 26.46 -18 13.92 -18 1 C-15.69 1 -13.38 1 -11 1 C-10.67 1.66 -10.34 2.32 -10 3 C-9.195625 2.2575 -9.195625 2.2575 -8.375 1.5 C-5.34881863 -0.41127245 -3.52295483 -0.37478243 0 0 Z " fill="#ECECEC" transform="translate(60,75)"/>
<path d="M0 0 C2 3 2 3 3.75 6.5 C5.89050787 10.20864551 7.83392106 11.66371053 12 13 C17.06149528 13.55443941 21.39593285 13.37629272 26 11 C26.41668469 15.25018379 26.44022082 17.35342568 24 20.9375 C20.64868209 23.24153106 18.88708599 23.73434517 14.91015625 23.50390625 C11.80570653 22.68494099 10.16656772 20.27767376 8 18 C4.31558496 17.11472891 4.31558496 17.11472891 1 17 C2.97313397 22.7001648 4.61143127 24.88660473 10 28 C10 28.33 10 28.66 10 29 C6.7 29 3.4 29 0 29 C0 19.43 0 9.86 0 0 Z " fill="#060606" transform="translate(0,100)"/>
<path d="M0 0 C2.31 0 4.62 0 7 0 C7 12.54 7 25.08 7 38 C4.69 38 2.38 38 0 38 C0 25.46 0 12.92 0 0 Z " fill="#479FD2" transform="translate(107,76)"/>
<path d="M0 0 C0.3125 3.1875 0.3125 3.1875 0 7 C-2.1727422 9.63016161 -3.94673788 11.47336894 -7 13 C-13.24793388 13.46280992 -13.24793388 13.46280992 -16.4375 11.5 C-16.953125 11.005 -17.46875 10.51 -18 10 C-18 7.1875 -18 7.1875 -17 4 C-12.15331361 0.87920681 -5.6555865 0 0 0 Z " fill="#020406" transform="translate(90,96)"/>
<path d="M0 0 C2.31 0 4.62 0 7 0 C7 2.64 7 5.28 7 8 C4.69 8 2.38 8 0 8 C0 5.36 0 2.72 0 0 Z " fill="#469CCE" transform="translate(107,62)"/>
<path d="M0 0 C0.66 0 1.32 0 2 0 C3.34423339 1.65788785 4.67618483 3.32576317 6 5 C7.32 5.99 8.64 6.98 10 8 C6.7 8 3.4 8 0 8 C0 5.36 0 2.72 0 0 Z " fill="#141414" transform="translate(0,121)"/>
</svg>
