<svg width="15" height="17" viewBox="0 0 15 17" fill="none" xmlns="http://www.w3.org/2000/svg">
<path d="M7.50002 1.69995C4.30549 1.69995 1.68986 4.54878 1.51642 8.12276C1.50236 8.36714 1.60431 8.60089 1.78478 8.73636C1.96525 8.8705 2.19611 8.88511 2.3883 8.77354C2.58049 8.66198 2.70588 8.44151 2.71408 8.19714C2.85353 5.32972 4.93244 3.05995 7.50002 3.05995C8.8758 3.05995 10.1098 3.71472 10.9828 4.75995H10.2C9.98322 4.75597 9.78283 4.8848 9.67385 5.0973C9.56369 5.30847 9.56369 5.57144 9.67385 5.78261C9.78283 5.99511 9.98322 6.12394 10.2 6.11995H12.0785C12.1465 6.13323 12.2156 6.13323 12.2848 6.11995H13.2V2.71995C13.2024 2.53667 13.1391 2.36003 13.0242 2.22987C12.9094 2.09972 12.7535 2.028 12.5906 2.03065C12.2602 2.03597 11.9953 2.34409 12 2.71995V4.00425C10.8996 2.59112 9.28947 1.69995 7.50002 1.69995ZM12.9094 8.15065C12.5778 8.13472 12.2988 8.4269 12.286 8.80276C12.1465 11.6702 10.0676 13.94 7.50002 13.94C6.12424 13.94 4.89142 13.2852 4.0172 12.24H4.80002C5.01681 12.2439 5.2172 12.1151 5.32619 11.9026C5.43635 11.6914 5.43635 11.4285 5.32619 11.2173C5.2172 11.0048 5.01681 10.876 4.80002 10.88H2.91564C2.85236 10.8693 2.78908 10.8693 2.7258 10.88H1.80002V14.28C1.7965 14.5257 1.91017 14.7528 2.09767 14.8763C2.284 15.0011 2.51603 15.0011 2.70236 14.8763C2.88986 14.7528 3.00353 14.5257 3.00002 14.28V12.9957C4.10041 14.4088 5.71056 15.3 7.50002 15.3C10.6945 15.3 13.3102 12.4511 13.4836 8.87714C13.4953 8.69386 13.4403 8.51323 13.3324 8.37644C13.2235 8.23964 13.0711 8.15862 12.9094 8.15065Z" fill="#979797"/>
</svg>
