<svg width="23" height="21" viewBox="0 0 23 21" fill="none" xmlns="http://www.w3.org/2000/svg">
<path d="M20.2721 2.88391C20.077 2.89159 19.8827 2.93914 19.7044 3.00234H19.7039C19.5302 3.06424 18.4144 3.48632 16.7879 4.10258C15.1614 4.71885 13.0474 5.52113 10.9514 6.31691C6.75949 7.90848 2.64031 9.47409 2.64031 9.47409L2.65884 9.46794C2.65884 9.46794 2.42897 9.5367 2.19895 9.67866C2.08394 9.74964 1.96319 9.84032 1.86765 9.96628C1.77211 10.0922 1.70487 10.2647 1.73064 10.4498C1.77714 10.7836 2.02638 11.002 2.23208 11.1332C2.43778 11.2643 2.63525 11.3265 2.63525 11.3265L2.6375 11.3275L6.66643 12.5436C6.73272 12.7543 7.80963 16.1781 8.0635 16.901C8.19629 17.2795 8.3191 17.4896 8.4341 17.6218C8.49161 17.688 8.54839 17.7349 8.60537 17.7669C8.62986 17.7807 8.65414 17.79 8.6778 17.7982C8.68166 17.7996 8.68578 17.8022 8.6896 17.8033C8.69772 17.8059 8.70205 17.8058 8.71206 17.808C9.09164 17.9361 9.41228 17.7126 9.41228 17.7126L9.42126 17.7064L12.1834 15.4875L16.2685 18.4786L16.3044 18.4929C16.96 18.7508 17.5018 18.6091 17.8166 18.3822C18.1314 18.1552 18.2591 17.8582 18.2591 17.8582L18.2692 17.8351L21.2161 4.22563C21.2883 3.9345 21.2955 3.69012 21.2329 3.48017C21.1703 3.27022 21.0246 3.09951 20.8438 3.00388C20.663 2.90824 20.4672 2.87623 20.2721 2.88391ZM20.2879 3.41813C20.4023 3.41364 20.4987 3.42799 20.5557 3.45813C20.6127 3.48826 20.6497 3.5228 20.6781 3.61809C20.7066 3.71337 20.7134 3.8742 20.6551 4.10925L20.654 4.11284L17.7189 17.6695C17.7146 17.6786 17.639 17.841 17.46 17.97C17.2796 18.1 17.0341 18.1961 16.5537 18.0146L9.98728 13.2065C9.95996 13.1803 9.927 13.1595 9.89048 13.1455C9.85395 13.1315 9.81464 13.1245 9.77502 13.125C9.69944 13.1242 9.62654 13.1506 9.57211 13.1984C9.51767 13.2463 9.48607 13.3118 9.48415 13.3808L8.73564 17.0425C8.69737 16.962 8.65613 16.8676 8.61155 16.7405C8.37983 16.0808 7.33786 12.7773 7.23525 12.4518L17.5415 6.35947C17.5563 6.41775 17.5925 6.46965 17.6441 6.50657C17.6957 6.5435 17.7595 6.56323 17.825 6.5625C17.8684 6.56297 17.9113 6.55449 17.9505 6.53769C17.9897 6.5209 18.0243 6.49622 18.0516 6.4655C18.079 6.43478 18.0983 6.39882 18.1083 6.3603C18.1183 6.32179 18.1185 6.28172 18.1092 6.24309C18.1168 6.16276 18.1094 6.08376 18.071 6.0052C18.0089 5.87843 17.862 5.80126 17.7576 5.7832C17.5489 5.74708 17.4129 5.81652 17.4129 5.81652L17.3842 5.82626L6.85903 12.0488L2.82505 10.8312L2.82392 10.8307C2.82286 10.8303 2.69613 10.7886 2.56113 10.7025C2.42557 10.6161 2.31789 10.5039 2.30115 10.3836C2.29529 10.3416 2.30414 10.3131 2.34045 10.2652C2.37677 10.2173 2.44409 10.1607 2.5207 10.1134C2.67391 10.0189 2.84302 9.96525 2.84302 9.96525L2.852 9.96218L2.86155 9.95859C2.86155 9.95859 6.9803 8.39292 11.1721 6.80141C13.268 6.00566 15.3823 5.20376 17.0086 4.58759C18.6348 3.97142 19.7962 3.53298 19.9128 3.49145C20.041 3.44598 20.1734 3.42263 20.2879 3.41813ZM17.0198 6.74604L16.7896 6.85166L16.7441 7.08339L16.9204 7.25515L17.0198 7.27104L17.25 7.16594L17.2955 6.9342L17.1197 6.76245L17.0198 6.74604ZM16.2151 7.4551L15.9849 7.5602L15.9394 7.79194L16.1152 7.96369L16.2151 7.9801L16.4454 7.87448L16.4908 7.64326L16.3145 7.4715L16.2151 7.4551ZM15.4099 8.16364L15.1797 8.26926L15.1342 8.50048L15.31 8.67224L15.4099 8.68864L15.6401 8.58354L15.6856 8.3518L15.5099 8.18005L15.4099 8.16364ZM14.6052 8.8727L14.3745 8.9778L14.3295 9.20954L14.5053 9.38129L14.6052 9.3977L14.8355 9.29208L14.881 9.06086L14.7046 8.88859L14.6052 8.8727ZM13.8 9.58124L13.5698 9.68686L13.5243 9.91809L13.7001 10.0898L13.8 10.1062L14.0302 10.0011L14.0757 9.7694L13.9 9.59765L13.8 9.58124ZM12.9948 10.2898L12.7646 10.3954L12.7191 10.6271L12.8954 10.7989L12.9948 10.8148L13.2256 10.7097L13.2705 10.4779L13.0947 10.3062L12.9948 10.2898ZM12.1901 10.9988L11.9599 11.104L11.9144 11.3357L12.0902 11.5074L12.1901 11.5238L12.4204 11.4182L12.4658 11.187L12.2895 11.0153L12.1901 10.9988ZM11.3849 11.7074L11.1547 11.813L11.1092 12.0442L11.2855 12.216L11.3849 12.2324L11.6151 12.1273L11.6606 11.8956L11.4849 11.7238L11.3849 11.7074ZM10.5802 12.4165L10.3495 12.5216L10.3045 12.7533L10.4803 12.925L10.5802 12.9415L10.8105 12.8358L10.856 12.6041L10.6796 12.4323L10.5802 12.4165ZM9.96931 13.8664L11.7286 15.1542L9.30896 17.0974L9.96931 13.8664Z" fill="white" fill-opacity="0.7"/>
</svg>
